<svg width="24" height="24" viewBox="0 0 24 24" fill="none" xmlns="http://www.w3.org/2000/svg">
<g clip-path="url(#clip0)">
<path d="M10.7049 0C7.53994 0 4.90194 2.285 4.34894 5.291C3.22699 5.39508 2.18424 5.91401 1.42467 6.74627C0.665093 7.57853 0.243351 8.66423 0.241943 9.791C0.243267 10.9894 0.719905 12.1383 1.56728 12.9857C2.41466 13.833 3.56357 14.3097 4.76194 14.311H11.5229C11.6887 14.311 11.8477 14.2452 11.9649 14.1279C12.0821 14.0107 12.1479 13.8518 12.1479 13.686C12.1479 13.5202 12.0821 13.3613 11.9649 13.2441C11.8477 13.1268 11.6887 13.061 11.5229 13.061H4.76094C3.89393 13.0602 3.06265 12.7154 2.44958 12.1024C1.83651 11.4893 1.49174 10.658 1.49094 9.791C1.4919 9.19797 1.65397 8.61634 1.95982 8.10826C2.26567 7.60019 2.70382 7.18476 3.22744 6.90636C3.75106 6.62796 4.34049 6.49706 4.93273 6.52765C5.52497 6.55823 6.09778 6.74915 6.58994 7.08C6.72724 7.16725 6.89313 7.19753 7.0524 7.16441C7.21166 7.13129 7.35173 7.03739 7.44287 6.90264C7.534 6.7679 7.569 6.60293 7.54045 6.44279C7.5119 6.28264 7.42203 6.13994 7.28994 6.045C6.78282 5.70291 6.21112 5.4681 5.60994 5.355C5.86486 4.19278 6.50896 3.15244 7.43566 2.40613C8.36236 1.65983 9.5161 1.2523 10.7059 1.251C11.9768 1.25252 13.2035 1.71754 14.156 2.55886C15.1085 3.40018 15.7215 4.56005 15.8799 5.821C15.7109 5.91212 15.5479 6.014 15.3919 6.126C15.3222 6.17267 15.2625 6.23292 15.2165 6.30316C15.1706 6.37339 15.1392 6.45216 15.1243 6.53478C15.1095 6.6174 15.1114 6.70216 15.13 6.78402C15.1486 6.86588 15.1835 6.94315 15.2326 7.01122C15.2817 7.07929 15.3441 7.13677 15.4159 7.18022C15.4877 7.22368 15.5676 7.25222 15.6507 7.26415C15.7337 7.27607 15.8184 7.27114 15.8995 7.24964C15.9807 7.22813 16.0567 7.19051 16.1229 7.139C16.6791 6.7366 17.3485 6.52093 18.0349 6.523C18.7873 6.52443 19.5162 6.78459 20.0994 7.25983C20.6826 7.73507 21.0846 8.39646 21.2379 9.133C21.2712 9.29545 21.3677 9.43801 21.5061 9.52934C21.6445 9.62067 21.8135 9.65328 21.9759 9.62C22.1384 9.58672 22.281 9.49026 22.3723 9.35186C22.4636 9.21346 22.4962 9.04445 22.4629 8.882C22.2511 7.86355 21.6955 6.94894 20.8892 6.29163C20.083 5.63431 19.0752 5.2743 18.0349 5.272C17.7128 5.27291 17.3916 5.30811 17.0769 5.377C16.5559 2.328 13.8999 0 10.7049 0ZM15.8969 10.64C15.7362 10.6352 15.5769 10.6724 15.4349 10.748C15.3092 10.8186 15.2019 10.918 15.1219 11.038C15.038 11.1685 14.9787 11.3132 14.9469 11.465C14.9104 11.6339 14.8923 11.8062 14.8929 11.979C14.8929 12.16 14.9109 12.332 14.9469 12.496C14.9829 12.66 15.0419 12.803 15.1219 12.926C15.2006 13.0489 15.308 13.1509 15.4349 13.223C15.5619 13.296 15.7159 13.333 15.8969 13.333C16.0769 13.333 16.2309 13.296 16.3569 13.223C16.4823 13.1507 16.5883 13.0491 16.6659 12.927C16.7459 12.803 16.8029 12.66 16.8389 12.496C16.8749 12.332 16.8929 12.16 16.8929 11.979C16.8929 11.799 16.8749 11.627 16.8389 11.465C16.8077 11.3137 16.749 11.1693 16.6659 11.039C16.5876 10.9188 16.4816 10.819 16.3569 10.748C16.2157 10.6724 16.0571 10.6352 15.8969 10.64V10.64ZM22.3829 10.64C22.2222 10.6352 22.0629 10.6724 21.9209 10.748C21.7952 10.8186 21.6879 10.918 21.6079 11.038C21.524 11.1685 21.4647 11.3132 21.4329 11.465C21.3968 11.6339 21.379 11.8063 21.3799 11.979C21.3799 12.16 21.3969 12.332 21.4329 12.496C21.4689 12.66 21.5279 12.803 21.6079 12.926C21.6866 13.0489 21.794 13.1509 21.9209 13.223C22.0479 13.296 22.2019 13.333 22.3829 13.333C22.5629 13.333 22.7169 13.296 22.8429 13.223C22.9687 13.1508 23.075 13.0493 23.1529 12.927C23.2309 12.803 23.2889 12.66 23.3249 12.496C23.3609 12.332 23.3789 12.16 23.3789 11.979C23.3789 11.799 23.3609 11.627 23.3249 11.465C23.2937 11.3137 23.235 11.1693 23.1519 11.039C23.0739 10.9189 22.9683 10.8191 22.8439 10.748C22.7024 10.6722 22.5434 10.635 22.3829 10.64V10.64ZM13.8459 10.708L13.0059 11.326L13.3189 11.756L13.7949 11.388V13.265H14.3979V10.708H13.8459ZM20.3319 10.708L19.4909 11.326L19.8049 11.756L20.2819 11.388V13.265H20.8849V10.708H20.3319ZM15.8969 11.153C15.9769 11.153 16.0399 11.181 16.0899 11.237C16.1399 11.294 16.1769 11.364 16.2039 11.447C16.2299 11.53 16.2479 11.62 16.2579 11.716C16.2766 11.8932 16.2766 12.0718 16.2579 12.249C16.2479 12.346 16.2299 12.436 16.2039 12.519C16.1808 12.5961 16.142 12.6676 16.0899 12.729C16.0662 12.7568 16.0366 12.7788 16.0031 12.7935C15.9697 12.8082 15.9334 12.8152 15.8969 12.814C15.8601 12.8151 15.8235 12.8079 15.7897 12.793C15.756 12.7781 15.726 12.7559 15.7019 12.728C15.6486 12.6673 15.6084 12.5961 15.5839 12.519C15.5553 12.4314 15.5366 12.3408 15.5279 12.249C15.51 12.0718 15.51 11.8932 15.5279 11.716C15.5379 11.62 15.5569 11.53 15.5839 11.446C15.6084 11.3689 15.6485 11.2977 15.7019 11.237C15.7263 11.2095 15.7564 11.1878 15.7901 11.1733C15.8238 11.1588 15.8603 11.1518 15.8969 11.153V11.153ZM22.3829 11.153C22.4629 11.153 22.5269 11.181 22.5759 11.237C22.6259 11.294 22.6629 11.364 22.6899 11.447C22.7169 11.53 22.7339 11.62 22.7439 11.716C22.7626 11.8932 22.7626 12.0718 22.7439 12.249C22.7339 12.346 22.7169 12.436 22.6899 12.519C22.6668 12.5961 22.628 12.6676 22.5759 12.729C22.5522 12.7568 22.5226 12.7788 22.4891 12.7935C22.4557 12.8082 22.4194 12.8152 22.3829 12.814C22.3461 12.815 22.3095 12.8078 22.2758 12.7929C22.2421 12.778 22.2121 12.7559 22.1879 12.728C22.1348 12.6672 22.095 12.596 22.0709 12.519C22.0423 12.4314 22.0236 12.3408 22.0149 12.249C21.997 12.0718 21.997 11.8932 22.0149 11.716C22.0249 11.62 22.0429 11.53 22.0709 11.446C22.095 11.369 22.1348 11.2978 22.1879 11.237C22.2123 11.2095 22.2424 11.1878 22.2761 11.1733C22.3098 11.1588 22.3463 11.1518 22.3829 11.153V11.153ZM20.1919 14.663C20.0308 14.6586 19.8712 14.6961 19.7289 14.772C19.6033 14.8428 19.4964 14.9426 19.4169 15.063C19.3369 15.185 19.2779 15.326 19.2419 15.489C19.2054 15.6579 19.1873 15.8302 19.1879 16.003C19.1879 16.183 19.2059 16.356 19.2419 16.519C19.2779 16.683 19.3359 16.827 19.4169 16.951C19.4958 17.0732 19.6028 17.1747 19.7289 17.247C19.871 17.3236 20.0306 17.3616 20.1919 17.357C20.3719 17.357 20.5249 17.32 20.6519 17.247C20.7771 17.1747 20.8828 17.0732 20.9599 16.951C21.0431 16.8185 21.102 16.6722 21.1339 16.519C21.1699 16.356 21.1879 16.184 21.1879 16.003C21.1879 15.823 21.1699 15.651 21.1339 15.489C21.1023 15.3376 21.0433 15.1933 20.9599 15.063C20.8819 14.9425 20.7759 14.8427 20.6509 14.772C20.5097 14.6965 20.3511 14.6592 20.1909 14.664L20.1919 14.663ZM13.7899 14.733L12.9489 15.35L13.2629 15.78L13.7389 15.411V17.289H14.3429V14.732L13.7899 14.733ZM15.9149 14.733L15.0739 15.35L15.3879 15.78L15.8649 15.411V17.289H16.4679V14.732L15.9149 14.733ZM18.0309 14.733L17.1909 15.35L17.5039 15.78L17.9809 15.411V17.289H18.5839V14.732L18.0309 14.733ZM20.1909 15.176C20.2709 15.176 20.3349 15.204 20.3849 15.261C20.4365 15.3227 20.4753 15.3941 20.4989 15.471C20.5249 15.554 20.5429 15.643 20.5519 15.74C20.5699 15.9169 20.5699 16.0951 20.5519 16.272C20.544 16.3636 20.5263 16.4542 20.4989 16.542C20.4758 16.6191 20.437 16.6906 20.3849 16.752C20.3612 16.7797 20.3315 16.8017 20.2981 16.8164C20.2647 16.8311 20.2284 16.8382 20.1919 16.837C20.155 16.8382 20.1183 16.8312 20.0844 16.8165C20.0505 16.8018 20.0203 16.7798 19.9959 16.752C19.9429 16.6908 19.9031 16.6193 19.8789 16.542C19.8503 16.4544 19.8316 16.3638 19.8229 16.272C19.8047 16.0951 19.8047 15.9169 19.8229 15.74C19.8329 15.643 19.8509 15.554 19.8789 15.47C19.9032 15.3931 19.943 15.3219 19.9959 15.261C20.0203 15.2332 20.0505 15.2111 20.0844 15.1964C20.1183 15.1817 20.155 15.1747 20.1919 15.176H20.1909ZM13.4619 18.249C13.3454 18.2457 13.23 18.2726 13.1269 18.327C13.0356 18.3783 12.9578 18.4507 12.8999 18.538C12.8388 18.6326 12.7957 18.7377 12.7729 18.848C12.7459 18.966 12.7329 19.09 12.7329 19.221C12.7329 19.352 12.7459 19.477 12.7729 19.596C12.7958 19.7072 12.8389 19.8133 12.8999 19.909C12.957 19.9981 13.0349 20.0719 13.1269 20.124C13.2189 20.177 13.3309 20.204 13.4619 20.204C13.5784 20.2075 13.6937 20.1799 13.7959 20.124C13.8872 20.0716 13.9645 19.9978 14.0209 19.909C14.0779 19.819 14.1209 19.715 14.1459 19.596C14.1727 19.4728 14.1862 19.3471 14.1859 19.221C14.1859 19.091 14.1719 18.966 14.1459 18.848C14.1233 18.738 14.081 18.6329 14.0209 18.538C13.9636 18.4512 13.8865 18.3792 13.7959 18.328C13.6935 18.2726 13.5784 18.2451 13.4619 18.248V18.249ZM16.5479 18.249C16.4311 18.2455 16.3153 18.2723 16.2119 18.327C16.121 18.3785 16.0435 18.4508 15.9859 18.538C15.9247 18.6326 15.8817 18.7377 15.8589 18.848C15.8318 18.9705 15.8184 19.0956 15.8189 19.221C15.8189 19.352 15.8319 19.477 15.8589 19.596C15.8818 19.7072 15.9248 19.8133 15.9859 19.909C16.0439 19.999 16.1199 20.071 16.2119 20.124C16.3049 20.177 16.4169 20.204 16.5479 20.204C16.6644 20.2075 16.7797 20.1799 16.8819 20.124C16.9729 20.0715 17.0497 19.9977 17.1059 19.909C17.1639 19.819 17.2059 19.715 17.2319 19.596C17.2858 19.3496 17.2858 19.0944 17.2319 18.848C17.2088 18.738 17.1661 18.633 17.1059 18.538C17.0489 18.4513 16.9721 18.3793 16.8819 18.328C16.7795 18.2726 16.6644 18.2451 16.5479 18.248V18.249ZM21.6559 18.249C21.5391 18.2455 21.4233 18.2723 21.3199 18.327C21.229 18.3785 21.1515 18.4508 21.0939 18.538C21.0328 18.6326 20.9897 18.7377 20.9669 18.848C20.9399 18.966 20.9269 19.09 20.9269 19.221C20.9269 19.352 20.9399 19.477 20.9669 19.596C20.9898 19.7072 21.0329 19.8133 21.0939 19.909C21.1519 19.999 21.2279 20.071 21.3199 20.124C21.4129 20.177 21.5249 20.204 21.6559 20.204C21.7859 20.204 21.8989 20.177 21.9899 20.124C22.0809 20.0715 22.1577 19.9977 22.2139 19.909C22.2719 19.819 22.3139 19.715 22.3399 19.596C22.3667 19.4728 22.3802 19.3471 22.3799 19.221C22.3799 19.091 22.3659 18.966 22.3399 18.848C22.3168 18.738 22.2741 18.633 22.2139 18.538C22.1569 18.4513 22.0801 18.3793 21.9899 18.328C21.8875 18.2727 21.7723 18.2451 21.6559 18.248V18.249ZM14.9979 18.299L14.3879 18.747L14.6149 19.058L14.9609 18.792V20.154H15.3989V18.298L14.9979 18.299ZM18.0659 18.299L17.4559 18.747L17.6829 19.058L18.0289 18.792V20.154H18.4669V18.298L18.0659 18.299ZM23.1739 18.299L22.5629 18.747L22.7909 19.058L23.1369 18.792V20.154H23.5749V18.298L23.1739 18.299ZM13.4619 18.621C13.5199 18.621 13.5669 18.641 13.6019 18.683C13.6397 18.7271 13.668 18.7785 13.6849 18.834C13.7051 18.8978 13.7185 18.9635 13.7249 19.03C13.7378 19.1583 13.7378 19.2877 13.7249 19.416C13.7186 19.4829 13.7052 19.5489 13.6849 19.613C13.6681 19.6689 13.6398 19.7206 13.6019 19.765C13.5847 19.785 13.5631 19.8009 13.5389 19.8115C13.5147 19.822 13.4884 19.827 13.4619 19.826C13.4355 19.827 13.4091 19.8221 13.3847 19.8118C13.3604 19.8014 13.3386 19.7858 13.3209 19.766C13.2823 19.7214 13.2534 19.6693 13.2359 19.613C13.2148 19.5491 13.2011 19.483 13.1949 19.416C13.1822 19.2876 13.1822 19.1584 13.1949 19.03C13.2009 18.9634 13.2143 18.8976 13.2349 18.834C13.2528 18.7782 13.2821 18.7268 13.3209 18.683C13.3384 18.6629 13.3601 18.647 13.3845 18.6363C13.4089 18.6255 13.4353 18.6203 13.4619 18.621V18.621ZM16.5479 18.621C16.6059 18.621 16.6519 18.641 16.6879 18.683C16.7254 18.7272 16.7533 18.7786 16.7699 18.834C16.7902 18.8977 16.8036 18.9634 16.8099 19.03C16.823 19.1583 16.823 19.2877 16.8099 19.416C16.8038 19.4829 16.7904 19.549 16.7699 19.613C16.7534 19.6688 16.7255 19.7205 16.6879 19.765C16.6707 19.785 16.6491 19.8009 16.6249 19.8115C16.6007 19.822 16.5744 19.827 16.5479 19.826C16.5215 19.827 16.4951 19.8221 16.4707 19.8118C16.4464 19.8014 16.4246 19.7858 16.4069 19.766C16.3678 19.7216 16.3385 19.6695 16.3209 19.613C16.2998 19.5492 16.2864 19.483 16.2809 19.416C16.274 19.3512 16.2704 19.2861 16.2699 19.221C16.2699 19.164 16.2739 19.1 16.2799 19.03C16.2858 18.9633 16.2996 18.8975 16.3209 18.834C16.3388 18.7782 16.3681 18.7268 16.4069 18.683C16.4245 18.663 16.4462 18.6471 16.4706 18.6363C16.4949 18.6256 16.5213 18.6204 16.5479 18.621V18.621ZM21.6559 18.621C21.7139 18.621 21.7599 18.641 21.7959 18.683C21.8334 18.7272 21.8613 18.7786 21.8779 18.834C21.8984 18.8977 21.9118 18.9634 21.9179 19.03C21.9306 19.1584 21.9306 19.2876 21.9179 19.416C21.9117 19.4829 21.8983 19.5489 21.8779 19.613C21.8614 19.6688 21.8335 19.7205 21.7959 19.765C21.7786 19.785 21.7571 19.8008 21.7329 19.8114C21.7086 19.8219 21.6824 19.8269 21.6559 19.826C21.6293 19.8271 21.6028 19.8223 21.5782 19.812C21.5536 19.8016 21.5317 19.7859 21.5139 19.766C21.4756 19.7213 21.4467 19.6692 21.4289 19.613C21.4087 19.5489 21.3953 19.4829 21.3889 19.416C21.382 19.3512 21.3784 19.2861 21.3779 19.221C21.3779 19.164 21.3819 19.1 21.3879 19.03C21.3944 18.9635 21.4078 18.8978 21.4279 18.834C21.447 18.7788 21.4761 18.7276 21.5139 18.683C21.5315 18.6628 21.5534 18.6468 21.578 18.636C21.6025 18.6253 21.6292 18.6202 21.6559 18.621V18.621ZM19.9719 20.435C19.855 20.4318 19.7392 20.459 19.6359 20.514C19.5447 20.565 19.4669 20.637 19.4089 20.724C19.3478 20.8186 19.3047 20.9237 19.2819 21.034C19.2274 21.2804 19.2274 21.5356 19.2819 21.782C19.3049 21.8935 19.3479 21.9999 19.4089 22.096C19.4679 22.186 19.5429 22.258 19.6359 22.311C19.7289 22.364 19.8409 22.391 19.9719 22.391C20.0884 22.3943 20.2036 22.3667 20.3059 22.311C20.3969 22.2585 20.4738 22.1848 20.5299 22.096C20.5879 22.006 20.6299 21.901 20.6559 21.782C20.7098 21.5359 20.7094 21.281 20.6549 21.035C20.6324 20.925 20.59 20.8199 20.5299 20.725C20.4732 20.6378 20.3964 20.5654 20.3059 20.514C20.2034 20.459 20.0883 20.4318 19.9719 20.435V20.435ZM23.0349 20.435C22.918 20.4318 22.8022 20.459 22.6989 20.514C22.6078 20.5652 22.53 20.6371 22.4719 20.724C22.4107 20.8185 22.3676 20.9237 22.3449 21.034C22.2907 21.2804 22.2907 21.5356 22.3449 21.782C22.3678 21.8935 22.4109 21.9999 22.4719 22.096C22.5293 22.1848 22.6071 22.2585 22.6989 22.311C22.7909 22.364 22.9029 22.391 23.0349 22.391C23.1514 22.3946 23.2667 22.3669 23.3689 22.311C23.4596 22.2584 23.5361 22.1846 23.5919 22.096C23.6499 22.006 23.6919 21.901 23.7179 21.782C23.772 21.5359 23.772 21.2811 23.7179 21.035C23.6951 20.9249 23.6524 20.8198 23.5919 20.725C23.5355 20.6379 23.4591 20.5655 23.3689 20.514C23.2664 20.4589 23.1513 20.4317 23.0349 20.435V20.435ZM21.4899 20.485L20.8789 20.933L21.1069 21.245L21.4529 20.978V22.341H21.8909V20.485H21.4899ZM19.9719 20.808C20.0289 20.808 20.0759 20.828 20.1119 20.869C20.1495 20.9134 20.1774 20.9652 20.1939 21.021C20.2144 21.0843 20.2278 21.1497 20.2339 21.216C20.2467 21.3447 20.2467 21.4743 20.2339 21.603C20.2276 21.6699 20.2142 21.7359 20.1939 21.8C20.1774 21.8558 20.1495 21.9075 20.1119 21.952C20.0945 21.9718 20.0729 21.9874 20.0487 21.9978C20.0245 22.0082 19.9983 22.0131 19.9719 22.012C19.9453 22.0131 19.9188 22.0083 19.8942 21.998C19.8696 21.9876 19.8477 21.9719 19.8299 21.952C19.7915 21.9077 19.7626 21.856 19.7449 21.8C19.7244 21.736 19.711 21.6699 19.7049 21.603C19.698 21.5382 19.6944 21.4731 19.6939 21.408C19.6939 21.35 19.6969 21.286 19.7039 21.216C19.7105 21.1497 19.7243 21.0843 19.7449 21.021C19.7649 20.961 19.7929 20.911 19.8299 20.869C19.8476 20.849 19.8696 20.8331 19.8941 20.8226C19.9187 20.812 19.9452 20.8071 19.9719 20.808V20.808ZM23.0349 20.808C23.0919 20.808 23.1389 20.828 23.1749 20.869C23.2125 20.9134 23.2404 20.9652 23.2569 21.021C23.2771 21.0844 23.2905 21.1498 23.2969 21.216C23.31 21.3447 23.31 21.4743 23.2969 21.603C23.2908 21.6699 23.2774 21.736 23.2569 21.8C23.2401 21.8559 23.2118 21.9076 23.1739 21.952C23.1566 21.9719 23.1351 21.9876 23.1108 21.998C23.0866 22.0084 23.0603 22.0132 23.0339 22.012C23.0075 22.013 22.9811 22.0081 22.9567 21.9978C22.9324 21.9874 22.9106 21.9718 22.8929 21.952C22.8544 21.9078 22.8254 21.856 22.8079 21.8C22.7874 21.736 22.7739 21.6699 22.7679 21.603C22.7551 21.4743 22.7551 21.3447 22.7679 21.216C22.7741 21.1497 22.7876 21.0844 22.8079 21.021C22.8279 20.961 22.8559 20.911 22.8929 20.869C22.9107 20.849 22.9326 20.8332 22.9571 20.8227C22.9817 20.8121 23.0082 20.8071 23.0349 20.808ZM13.3219 20.993C13.2411 20.9909 13.1612 21.0098 13.0899 21.048C13.0268 21.0835 12.9729 21.1335 12.9329 21.194C12.8901 21.2595 12.8599 21.3324 12.8439 21.409C12.8253 21.4941 12.8163 21.5809 12.8169 21.668C12.8169 21.758 12.8259 21.845 12.8439 21.928C12.8603 22.0048 12.8904 22.078 12.9329 22.144C12.9729 22.207 13.0259 22.256 13.0899 22.293C13.161 22.3318 13.241 22.3511 13.3219 22.349C13.4119 22.349 13.4899 22.329 13.5529 22.293C13.6163 22.2567 13.6698 22.2056 13.7089 22.144C13.7504 22.0773 13.7799 22.0039 13.7959 21.927C13.8331 21.7563 13.8331 21.5797 13.7959 21.409C13.7801 21.3327 13.7507 21.2598 13.7089 21.194C13.6695 21.1335 13.616 21.0834 13.5529 21.048C13.4824 21.0098 13.4031 20.9909 13.3229 20.993H13.3219ZM14.3739 21.028L13.9509 21.338L14.1089 21.555L14.3489 21.37V22.314H14.6519V21.028H14.3739ZM13.3219 21.252C13.3619 21.252 13.3949 21.266 13.4189 21.294C13.4452 21.3246 13.4646 21.3604 13.4759 21.399C13.4898 21.4433 13.4992 21.4888 13.5039 21.535C13.5079 21.584 13.5109 21.627 13.5109 21.668C13.5109 21.708 13.5079 21.754 13.5039 21.803C13.4992 21.8492 13.4899 21.8947 13.4759 21.939C13.4646 21.9776 13.4451 22.0134 13.4189 22.044C13.407 22.058 13.3921 22.0691 13.3753 22.0765C13.3585 22.0839 13.3403 22.0875 13.3219 22.087C13.3034 22.0875 13.2851 22.084 13.2681 22.0765C13.2512 22.0691 13.2361 22.058 13.2239 22.044C13.1973 22.0134 13.1773 21.9777 13.1649 21.939C13.1505 21.8949 13.1411 21.8492 13.1369 21.803C13.1283 21.7139 13.1283 21.6241 13.1369 21.535C13.1412 21.4888 13.1505 21.4431 13.1649 21.399C13.1775 21.3603 13.198 21.3245 13.2249 21.294C13.2371 21.2803 13.252 21.2695 13.2688 21.2622C13.2855 21.255 13.3037 21.2515 13.3219 21.252ZM17.0969 22.646C17.0162 22.6435 16.9362 22.6621 16.8649 22.7C16.8017 22.7354 16.7478 22.7854 16.7079 22.846C16.6655 22.9112 16.6356 22.9838 16.6199 23.06C16.5818 23.2309 16.5818 23.4081 16.6199 23.579C16.6357 23.6561 16.6655 23.7297 16.7079 23.796C16.7476 23.8578 16.8014 23.9092 16.8649 23.946C16.9362 23.9841 17.0162 24.0028 17.0969 24C17.1778 24.0027 17.2579 23.9837 17.3289 23.945C17.3919 23.9086 17.4451 23.8575 17.4839 23.796C17.5255 23.7294 17.555 23.6559 17.5709 23.579C17.6092 23.4081 17.6092 23.2309 17.5709 23.06C17.5551 22.984 17.5256 22.9115 17.4839 22.846C17.4448 22.7855 17.3916 22.7354 17.3289 22.7C17.2577 22.6619 17.1777 22.6433 17.0969 22.646V22.646ZM18.1489 22.68L17.7259 22.99L17.8839 23.206L18.1239 23.021V23.966H18.4269V22.68H18.1489ZM17.0969 22.903C17.1369 22.903 17.1699 22.917 17.1949 22.946C17.2208 22.9768 17.2402 23.0125 17.2519 23.051C17.2657 23.0949 17.2748 23.1402 17.2789 23.186C17.2881 23.2751 17.2881 23.3649 17.2789 23.454C17.2749 23.5005 17.2658 23.5464 17.2519 23.591C17.24 23.6294 17.2206 23.6651 17.1949 23.696C17.1828 23.7098 17.1676 23.7208 17.1507 23.7281C17.1337 23.7353 17.1154 23.7387 17.0969 23.738C17.0785 23.7387 17.0602 23.7352 17.0432 23.728C17.0263 23.7207 17.0112 23.7098 16.9989 23.696C16.9722 23.6655 16.9521 23.6297 16.9399 23.591C16.9255 23.5465 16.9161 23.5006 16.9119 23.454C16.9031 23.3649 16.9031 23.2751 16.9119 23.186C16.9162 23.1401 16.9256 23.0948 16.9399 23.051C16.9523 23.0121 16.9727 22.9763 16.9999 22.946C17.0119 22.932 17.0268 22.9209 17.0436 22.9135C17.0604 22.9061 17.0786 22.9025 17.0969 22.903Z" fill="black"/>
</g>
<defs>
<clipPath id="clip0">
<rect width="24" height="24" fill="white"/>
</clipPath>
</defs>
</svg>
